<svg xmlns="http://www.w3.org/2000/svg" xmlns:xlink="http://www.w3.org/1999/xlink" width="1500" zoomAndPan="magnify" viewBox="0 0 1125 225" height="300" preserveAspectRatio="xMidYMid meet" version="1.0"><defs><g/><clipPath id="91d0db4000"><rect x="0" width="1087" y="0" height="225"/></clipPath><clipPath id="3e34c4ef32"><path d="M 214 33.03125 L 362.996094 33.03125 L 362.996094 150 L 214 150 Z M 214 33.03125 " clip-rule="nonzero"/></clipPath><clipPath id="e53b481c88"><path d="M 268 33.03125 L 362.996094 33.03125 L 362.996094 192.03125 L 268 192.03125 Z M 268 33.03125 " clip-rule="nonzero"/></clipPath><clipPath id="5ed091154f"><path d="M 214 74 L 362.996094 74 L 362.996094 192.03125 L 214 192.03125 Z M 214 74 " clip-rule="nonzero"/></clipPath><clipPath id="eac94b07ab"><path d="M 206.246094 74 L 355 74 L 355 192.03125 L 206.246094 192.03125 Z M 206.246094 74 " clip-rule="nonzero"/></clipPath><clipPath id="856cb0b0e6"><path d="M 206.246094 33.03125 L 301 33.03125 L 301 192.03125 L 206.246094 192.03125 Z M 206.246094 33.03125 " clip-rule="nonzero"/></clipPath><clipPath id="5358bd3dda"><path d="M 206.246094 33.03125 L 355 33.03125 L 355 150 L 206.246094 150 Z M 206.246094 33.03125 " clip-rule="nonzero"/></clipPath></defs><g transform="matrix(1, 0, 0, 1, 19, -0.000000000000008531)"><g clip-path="url(#91d0db4000)"><g fill="#000000" fill-opacity="1"><g transform="translate(1.082299, 184.195893)"><g><path d="M 17.03125 0 L 17.03125 -143.125 L 114.140625 -143.125 C 125.203125 -143.125 134.820312 -141.609375 143 -138.578125 C 151.1875 -135.554688 157.566406 -130.835938 162.140625 -124.421875 C 166.710938 -118.003906 169 -109.785156 169 -99.765625 C 169 -92.984375 167.816406 -87.234375 165.453125 -82.515625 C 163.097656 -77.796875 159.816406 -73.957031 155.609375 -71 C 151.410156 -68.050781 146.582031 -65.800781 141.125 -64.25 C 135.664062 -62.707031 129.84375 -61.710938 123.65625 -61.265625 L 120.5625 -63.046875 C 130.882812 -62.898438 139.363281 -62.050781 146 -60.5 C 152.632812 -58.945312 157.609375 -56.144531 160.921875 -52.09375 C 164.242188 -48.039062 165.90625 -42.03125 165.90625 -34.0625 L 165.90625 0 L 136.484375 0 L 136.484375 -32.078125 C 136.484375 -37.535156 135.523438 -41.773438 133.609375 -44.796875 C 131.691406 -47.816406 128.257812 -49.914062 123.3125 -51.09375 C 118.375 -52.28125 111.257812 -52.875 101.96875 -52.875 L 46.453125 -52.875 L 46.453125 0 Z M 46.453125 -75.875 L 114.140625 -75.875 C 122.398438 -75.875 128.703125 -77.863281 133.046875 -81.84375 C 137.398438 -85.820312 139.578125 -91.207031 139.578125 -98 C 139.578125 -104.476562 137.398438 -109.414062 133.046875 -112.8125 C 128.703125 -116.207031 122.398438 -117.90625 114.140625 -117.90625 L 46.453125 -117.90625 Z M 46.453125 -75.875 "/></g></g></g><g fill="#000000" fill-opacity="1"><g transform="translate(183.803123, 184.195893)"><g/></g></g><g fill="#000000" fill-opacity="1"><g transform="translate(237.114297, 184.195893)"><g/></g></g><g fill="#000000" fill-opacity="1"><g transform="translate(290.425471, 184.195893)"><g/></g></g><g fill="#000000" fill-opacity="1"><g transform="translate(343.739397, 184.195893)"><g><path d="M 148.421875 -63.265625 L 148.421875 -143.125 L 177.84375 -143.125 L 177.84375 -60.171875 C 177.84375 -50.734375 176.476562 -42.472656 173.75 -35.390625 C 171.019531 -28.316406 167.148438 -22.34375 162.140625 -17.46875 C 157.128906 -12.601562 151.265625 -8.660156 144.546875 -5.640625 C 137.835938 -2.617188 130.539062 -0.445312 122.65625 0.875 C 114.769531 2.207031 106.472656 2.875 97.765625 2.875 C 88.773438 2.875 80.222656 2.207031 72.109375 0.875 C 64.003906 -0.445312 56.59375 -2.617188 49.875 -5.640625 C 43.164062 -8.660156 37.378906 -12.601562 32.515625 -17.46875 C 27.648438 -22.34375 23.851562 -28.316406 21.125 -35.390625 C 18.394531 -42.472656 17.03125 -50.734375 17.03125 -60.171875 L 17.03125 -143.125 L 46.453125 -143.125 L 46.453125 -63.265625 C 46.453125 -52.054688 48.660156 -43.539062 53.078125 -37.71875 C 57.503906 -31.894531 63.585938 -27.910156 71.328125 -25.765625 C 79.078125 -23.628906 87.890625 -22.5625 97.765625 -22.5625 C 107.359375 -22.5625 115.953125 -23.628906 123.546875 -25.765625 C 131.140625 -27.910156 137.179688 -31.894531 141.671875 -37.71875 C 146.171875 -43.539062 148.421875 -52.054688 148.421875 -63.265625 Z M 148.421875 -63.265625 "/></g></g></g><g fill="#000000" fill-opacity="1"><g transform="translate(538.623755, 184.195893)"><g><path d="M 162.140625 -29.203125 L 152.84375 -25.4375 L 152.84375 -143.125 L 182.265625 -143.125 L 182.265625 0 L 152.84375 0 L 37.15625 -113.03125 L 46.453125 -116.796875 L 46.453125 0 L 17.03125 0 L 17.03125 -143.125 L 46.453125 -143.125 Z M 162.140625 -29.203125 "/></g></g></g><g fill="#000000" fill-opacity="1"><g transform="translate(737.932217, 184.195893)"><g><path d="M 98.875 -143.125 C 114.945312 -143.125 128.363281 -141.203125 139.125 -137.359375 C 149.894531 -133.523438 158.488281 -128.328125 164.90625 -121.765625 C 171.320312 -115.203125 175.894531 -107.644531 178.625 -99.09375 C 181.351562 -90.539062 182.71875 -81.546875 182.71875 -72.109375 C 182.71875 -62.671875 181.203125 -53.601562 178.171875 -44.90625 C 175.148438 -36.207031 170.359375 -28.5 163.796875 -21.78125 C 157.234375 -15.070312 148.609375 -9.765625 137.921875 -5.859375 C 127.234375 -1.953125 114.21875 0 98.875 0 L 17.03125 0 L 17.03125 -143.125 Z M 46.453125 -25.21875 L 98.21875 -25.21875 C 108.832031 -25.21875 117.640625 -26.503906 124.640625 -29.078125 C 131.648438 -31.660156 137.21875 -35.164062 141.34375 -39.59375 C 145.476562 -44.019531 148.425781 -49.035156 150.1875 -54.640625 C 151.957031 -60.242188 152.84375 -66.066406 152.84375 -72.109375 C 152.84375 -78.160156 151.957031 -83.910156 150.1875 -89.359375 C 148.425781 -94.816406 145.476562 -99.679688 141.34375 -103.953125 C 137.21875 -108.234375 131.648438 -111.628906 124.640625 -114.140625 C 117.640625 -116.648438 108.832031 -117.90625 98.21875 -117.90625 L 46.453125 -117.90625 Z M 46.453125 -25.21875 "/></g></g></g><g fill="#000000" fill-opacity="1"><g transform="translate(932.374128, 184.195893)"><g><path d="M 7.515625 -48.21875 L 37.390625 -48.21875 C 37.972656 -43.207031 40.289062 -38.671875 44.34375 -34.609375 C 48.40625 -30.554688 53.753906 -27.382812 60.390625 -25.09375 C 67.023438 -22.8125 74.472656 -21.671875 82.734375 -21.671875 C 90.253906 -21.671875 96.445312 -22.484375 101.3125 -24.109375 C 106.175781 -25.734375 109.785156 -28.019531 112.140625 -30.96875 C 114.503906 -33.914062 115.6875 -37.457031 115.6875 -41.59375 C 115.6875 -45.570312 114.210938 -48.628906 111.265625 -50.765625 C 108.316406 -52.898438 103.671875 -54.664062 97.328125 -56.0625 C 90.984375 -57.46875 82.648438 -58.910156 72.328125 -60.390625 C 64.222656 -61.566406 56.554688 -63.222656 49.328125 -65.359375 C 42.097656 -67.503906 35.71875 -70.269531 30.1875 -73.65625 C 24.664062 -77.050781 20.316406 -81.21875 17.140625 -86.15625 C 13.972656 -91.09375 12.390625 -96.957031 12.390625 -103.75 C 12.390625 -112.15625 14.785156 -119.523438 19.578125 -125.859375 C 24.367188 -132.203125 31.484375 -137.144531 40.921875 -140.6875 C 50.359375 -144.226562 61.9375 -146 75.65625 -146 C 96.300781 -146 112.1875 -141.609375 123.3125 -132.828125 C 134.445312 -124.054688 139.867188 -112.003906 139.578125 -96.671875 L 110.828125 -96.671875 C 110.234375 -105.367188 106.582031 -111.632812 99.875 -115.46875 C 93.164062 -119.300781 84.722656 -121.21875 74.546875 -121.21875 C 65.109375 -121.21875 57.328125 -119.816406 51.203125 -117.015625 C 45.085938 -114.210938 42.03125 -109.421875 42.03125 -102.640625 C 42.03125 -99.984375 42.765625 -97.660156 44.234375 -95.671875 C 45.710938 -93.679688 48.222656 -91.945312 51.765625 -90.46875 C 55.304688 -89 60.097656 -87.597656 66.140625 -86.265625 C 72.179688 -84.941406 79.703125 -83.613281 88.703125 -82.28125 C 97.109375 -81.101562 104.738281 -79.519531 111.59375 -77.53125 C 118.457031 -75.539062 124.359375 -72.957031 129.296875 -69.78125 C 134.234375 -66.613281 138.03125 -62.597656 140.6875 -57.734375 C 143.34375 -52.867188 144.671875 -46.894531 144.671875 -39.8125 C 144.671875 -31.113281 142.421875 -23.554688 137.921875 -17.140625 C 133.421875 -10.722656 126.488281 -5.742188 117.125 -2.203125 C 107.757812 1.324219 95.628906 3.09375 80.734375 3.09375 C 70.117188 3.09375 60.753906 1.949219 52.640625 -0.328125 C 44.535156 -2.617188 37.53125 -5.679688 31.625 -9.515625 C 25.726562 -13.347656 20.9375 -17.550781 17.25 -22.125 C 13.5625 -26.695312 10.941406 -31.265625 9.390625 -35.828125 C 7.847656 -40.398438 7.222656 -44.53125 7.515625 -48.21875 Z M 7.515625 -48.21875 "/></g></g></g></g></g><g clip-path="url(#3e34c4ef32)"><path stroke-linecap="round" transform="matrix(0.876818, 0, 0, 0.876724, -13.36457, -19.7423)" fill="none" stroke-linejoin="miter" d="M 350.598958 72.700614 C 355.593047 73.395673 360.47576 74.567471 365.242642 76.211552 C 370.009524 77.851178 374.575929 79.940811 378.937404 82.467082 C 383.298878 84.99781 387.379685 87.920621 391.175371 91.239973 C 394.971056 94.559325 398.414794 98.212839 401.50213 102.200517 " stroke="#4338ca" stroke-width="16" stroke-opacity="1" stroke-miterlimit="4"/></g><g clip-path="url(#e53b481c88)"><path stroke-linecap="round" transform="matrix(0.876818, 0, 0, 0.876724, -13.36457, -19.7423)" fill="none" stroke-linejoin="miter" d="M 412.198657 120.499279 C 414.11432 125.182015 415.557749 130.002872 416.533401 134.966305 C 417.504598 139.929739 417.994651 144.942183 417.994651 149.999181 C 417.994651 155.05618 417.504598 160.068624 416.533401 165.032058 C 415.557749 169.995491 414.11432 174.816348 412.198657 179.499084 " stroke="#5b21b6" stroke-width="16" stroke-opacity="1" stroke-miterlimit="4"/></g><g clip-path="url(#5ed091154f)"><path stroke-linecap="round" transform="matrix(0.876818, 0, 0, 0.876724, -13.36457, -19.7423)" fill="none" stroke-linejoin="miter" d="M 401.50213 197.797846 C 398.414794 201.785524 394.971056 205.439038 391.175371 208.75839 C 387.379685 212.082197 383.298878 215.005009 378.937404 217.531281 C 374.575929 220.062008 370.009524 222.147184 365.242642 223.791266 C 360.47576 225.435348 355.593047 226.60269 350.598958 227.302205 " stroke="#0d7a6b" stroke-width="16" stroke-opacity="1" stroke-miterlimit="4"/></g><g clip-path="url(#eac94b07ab)"><path stroke-linecap="round" transform="matrix(0.876818, 0, 0, 0.876724, -13.36457, -19.7423)" fill="none" stroke-linejoin="miter" d="M 329.401926 227.302205 C 324.407838 226.60269 319.525125 225.435348 314.758243 223.791266 C 309.991361 222.147184 305.424955 220.062008 301.063481 217.531281 C 296.697552 215.005009 292.621199 212.082197 288.825514 208.75839 C 285.029828 205.439038 281.58609 201.785524 278.498754 197.797846 " stroke="#1e3a5f" stroke-width="16" stroke-opacity="1" stroke-miterlimit="4"/></g><g clip-path="url(#856cb0b0e6)"><path stroke-linecap="round" transform="matrix(0.876818, 0, 0, 0.876724, -13.36457, -19.7423)" fill="none" stroke-linejoin="miter" d="M 267.797773 179.499084 C 265.886565 174.816348 264.443135 169.995491 263.467484 165.032058 C 262.491832 160.068624 262.006234 155.05618 262.006234 149.999181 C 262.006234 144.942183 262.491832 139.929739 263.467484 134.966305 C 264.443135 130.002872 265.886565 125.182015 267.797773 120.499279 " stroke="#991b1b" stroke-width="16" stroke-opacity="1" stroke-miterlimit="4"/></g><g clip-path="url(#5358bd3dda)"><path stroke-linecap="round" transform="matrix(0.876818, 0, 0, 0.876724, -13.36457, -19.7423)" fill="none" stroke-linejoin="miter" d="M 278.498754 102.200517 C 281.58609 98.212839 285.029828 94.559325 288.825514 91.239973 C 292.621199 87.920621 296.697552 84.99781 301.063481 82.467082 C 305.424955 79.940811 309.991361 77.851178 314.758243 76.211552 C 319.525125 74.567471 324.407838 73.395673 329.401926 72.700614 " stroke="#92400e" stroke-width="16" stroke-opacity="1" stroke-miterlimit="4"/></g></svg>