<svg xmlns="http://www.w3.org/2000/svg" xmlns:xlink="http://www.w3.org/1999/xlink" width="1500" zoomAndPan="magnify" viewBox="0 0 1125 225" height="300" preserveAspectRatio="xMidYMid meet" version="1.0"><defs><g/><clipPath id="1ebf1f370a"><rect x="0" width="1087" y="0" height="225"/></clipPath><clipPath id="8f29eaff8e"><path d="M 201.03125 30.007812 L 366.03125 30.007812 L 366.03125 195.007812 L 201.03125 195.007812 Z M 201.03125 30.007812 " clip-rule="nonzero"/></clipPath></defs><g transform="matrix(1, 0, 0, 1, 19, -0.000000000000008531)"><g clip-path="url(#1ebf1f370a)"><g fill="#000000" fill-opacity="1"><g transform="translate(1.082299, 184.195893)"><g><path d="M 17.03125 0 L 17.03125 -143.125 L 114.140625 -143.125 C 125.203125 -143.125 134.820312 -141.609375 143 -138.578125 C 151.1875 -135.554688 157.566406 -130.835938 162.140625 -124.421875 C 166.710938 -118.003906 169 -109.785156 169 -99.765625 C 169 -92.984375 167.816406 -87.234375 165.453125 -82.515625 C 163.097656 -77.796875 159.816406 -73.957031 155.609375 -71 C 151.410156 -68.050781 146.582031 -65.800781 141.125 -64.25 C 135.664062 -62.707031 129.84375 -61.710938 123.65625 -61.265625 L 120.5625 -63.046875 C 130.882812 -62.898438 139.363281 -62.050781 146 -60.5 C 152.632812 -58.945312 157.609375 -56.144531 160.921875 -52.09375 C 164.242188 -48.039062 165.90625 -42.03125 165.90625 -34.0625 L 165.90625 0 L 136.484375 0 L 136.484375 -32.078125 C 136.484375 -37.535156 135.523438 -41.773438 133.609375 -44.796875 C 131.691406 -47.816406 128.257812 -49.914062 123.3125 -51.09375 C 118.375 -52.28125 111.257812 -52.875 101.96875 -52.875 L 46.453125 -52.875 L 46.453125 0 Z M 46.453125 -75.875 L 114.140625 -75.875 C 122.398438 -75.875 128.703125 -77.863281 133.046875 -81.84375 C 137.398438 -85.820312 139.578125 -91.207031 139.578125 -98 C 139.578125 -104.476562 137.398438 -109.414062 133.046875 -112.8125 C 128.703125 -116.207031 122.398438 -117.90625 114.140625 -117.90625 L 46.453125 -117.90625 Z M 46.453125 -75.875 "/></g></g></g><g fill="#000000" fill-opacity="1"><g transform="translate(183.803123, 184.195893)"><g/></g></g><g fill="#000000" fill-opacity="1"><g transform="translate(237.114297, 184.195893)"><g/></g></g><g fill="#000000" fill-opacity="1"><g transform="translate(290.425471, 184.195893)"><g/></g></g><g fill="#000000" fill-opacity="1"><g transform="translate(343.739397, 184.195893)"><g><path d="M 148.421875 -63.265625 L 148.421875 -143.125 L 177.84375 -143.125 L 177.84375 -60.171875 C 177.84375 -50.734375 176.476562 -42.472656 173.75 -35.390625 C 171.019531 -28.316406 167.148438 -22.34375 162.140625 -17.46875 C 157.128906 -12.601562 151.265625 -8.660156 144.546875 -5.640625 C 137.835938 -2.617188 130.539062 -0.445312 122.65625 0.875 C 114.769531 2.207031 106.472656 2.875 97.765625 2.875 C 88.773438 2.875 80.222656 2.207031 72.109375 0.875 C 64.003906 -0.445312 56.59375 -2.617188 49.875 -5.640625 C 43.164062 -8.660156 37.378906 -12.601562 32.515625 -17.46875 C 27.648438 -22.34375 23.851562 -28.316406 21.125 -35.390625 C 18.394531 -42.472656 17.03125 -50.734375 17.03125 -60.171875 L 17.03125 -143.125 L 46.453125 -143.125 L 46.453125 -63.265625 C 46.453125 -52.054688 48.660156 -43.539062 53.078125 -37.71875 C 57.503906 -31.894531 63.585938 -27.910156 71.328125 -25.765625 C 79.078125 -23.628906 87.890625 -22.5625 97.765625 -22.5625 C 107.359375 -22.5625 115.953125 -23.628906 123.546875 -25.765625 C 131.140625 -27.910156 137.179688 -31.894531 141.671875 -37.71875 C 146.171875 -43.539062 148.421875 -52.054688 148.421875 -63.265625 Z M 148.421875 -63.265625 "/></g></g></g><g fill="#000000" fill-opacity="1"><g transform="translate(538.623755, 184.195893)"><g><path d="M 162.140625 -29.203125 L 152.84375 -25.4375 L 152.84375 -143.125 L 182.265625 -143.125 L 182.265625 0 L 152.84375 0 L 37.15625 -113.03125 L 46.453125 -116.796875 L 46.453125 0 L 17.03125 0 L 17.03125 -143.125 L 46.453125 -143.125 Z M 162.140625 -29.203125 "/></g></g></g><g fill="#000000" fill-opacity="1"><g transform="translate(737.932217, 184.195893)"><g><path d="M 98.875 -143.125 C 114.945312 -143.125 128.363281 -141.203125 139.125 -137.359375 C 149.894531 -133.523438 158.488281 -128.328125 164.90625 -121.765625 C 171.320312 -115.203125 175.894531 -107.644531 178.625 -99.09375 C 181.351562 -90.539062 182.71875 -81.546875 182.71875 -72.109375 C 182.71875 -62.671875 181.203125 -53.601562 178.171875 -44.90625 C 175.148438 -36.207031 170.359375 -28.5 163.796875 -21.78125 C 157.234375 -15.070312 148.609375 -9.765625 137.921875 -5.859375 C 127.234375 -1.953125 114.21875 0 98.875 0 L 17.03125 0 L 17.03125 -143.125 Z M 46.453125 -25.21875 L 98.21875 -25.21875 C 108.832031 -25.21875 117.640625 -26.503906 124.640625 -29.078125 C 131.648438 -31.660156 137.21875 -35.164062 141.34375 -39.59375 C 145.476562 -44.019531 148.425781 -49.035156 150.1875 -54.640625 C 151.957031 -60.242188 152.84375 -66.066406 152.84375 -72.109375 C 152.84375 -78.160156 151.957031 -83.910156 150.1875 -89.359375 C 148.425781 -94.816406 145.476562 -99.679688 141.34375 -103.953125 C 137.21875 -108.234375 131.648438 -111.628906 124.640625 -114.140625 C 117.640625 -116.648438 108.832031 -117.90625 98.21875 -117.90625 L 46.453125 -117.90625 Z M 46.453125 -25.21875 "/></g></g></g><g fill="#000000" fill-opacity="1"><g transform="translate(932.374128, 184.195893)"><g><path d="M 7.515625 -48.21875 L 37.390625 -48.21875 C 37.972656 -43.207031 40.289062 -38.671875 44.34375 -34.609375 C 48.40625 -30.554688 53.753906 -27.382812 60.390625 -25.09375 C 67.023438 -22.8125 74.472656 -21.671875 82.734375 -21.671875 C 90.253906 -21.671875 96.445312 -22.484375 101.3125 -24.109375 C 106.175781 -25.734375 109.785156 -28.019531 112.140625 -30.96875 C 114.503906 -33.914062 115.6875 -37.457031 115.6875 -41.59375 C 115.6875 -45.570312 114.210938 -48.628906 111.265625 -50.765625 C 108.316406 -52.898438 103.671875 -54.664062 97.328125 -56.0625 C 90.984375 -57.46875 82.648438 -58.910156 72.328125 -60.390625 C 64.222656 -61.566406 56.554688 -63.222656 49.328125 -65.359375 C 42.097656 -67.503906 35.71875 -70.269531 30.1875 -73.65625 C 24.664062 -77.050781 20.316406 -81.21875 17.140625 -86.15625 C 13.972656 -91.09375 12.390625 -96.957031 12.390625 -103.75 C 12.390625 -112.15625 14.785156 -119.523438 19.578125 -125.859375 C 24.367188 -132.203125 31.484375 -137.144531 40.921875 -140.6875 C 50.359375 -144.226562 61.9375 -146 75.65625 -146 C 96.300781 -146 112.1875 -141.609375 123.3125 -132.828125 C 134.445312 -124.054688 139.867188 -112.003906 139.578125 -96.671875 L 110.828125 -96.671875 C 110.234375 -105.367188 106.582031 -111.632812 99.875 -115.46875 C 93.164062 -119.300781 84.722656 -121.21875 74.546875 -121.21875 C 65.109375 -121.21875 57.328125 -119.816406 51.203125 -117.015625 C 45.085938 -114.210938 42.03125 -109.421875 42.03125 -102.640625 C 42.03125 -99.984375 42.765625 -97.660156 44.234375 -95.671875 C 45.710938 -93.679688 48.222656 -91.945312 51.765625 -90.46875 C 55.304688 -89 60.097656 -87.597656 66.140625 -86.265625 C 72.179688 -84.941406 79.703125 -83.613281 88.703125 -82.28125 C 97.109375 -81.101562 104.738281 -79.519531 111.59375 -77.53125 C 118.457031 -75.539062 124.359375 -72.957031 129.296875 -69.78125 C 134.234375 -66.613281 138.03125 -62.597656 140.6875 -57.734375 C 143.34375 -52.867188 144.671875 -46.894531 144.671875 -39.8125 C 144.671875 -31.113281 142.421875 -23.554688 137.921875 -17.140625 C 133.421875 -10.722656 126.488281 -5.742188 117.125 -2.203125 C 107.757812 1.324219 95.628906 3.09375 80.734375 3.09375 C 70.117188 3.09375 60.753906 1.949219 52.640625 -0.328125 C 44.535156 -2.617188 37.53125 -5.679688 31.625 -9.515625 C 25.726562 -13.347656 20.9375 -17.550781 17.25 -22.125 C 13.5625 -26.695312 10.941406 -31.265625 9.390625 -35.828125 C 7.847656 -40.398438 7.222656 -44.53125 7.515625 -48.21875 Z M 7.515625 -48.21875 "/></g></g></g></g></g><g clip-path="url(#8f29eaff8e)"><path fill="#0d7a6b" d="M 324.863281 41.105469 C 344.621094 52.542969 357.425781 69.292969 363.277344 91.359375 C 363.371094 91.71875 363.429688 92.082031 363.453125 92.449219 C 363.476562 92.816406 363.464844 93.183594 363.414062 93.550781 C 363.363281 93.917969 363.28125 94.273438 363.160156 94.625 C 363.042969 94.972656 362.890625 95.308594 362.703125 95.628906 C 362.519531 95.945312 362.304688 96.246094 362.058594 96.523438 C 361.816406 96.800781 361.546875 97.050781 361.253906 97.273438 C 360.957031 97.5 360.644531 97.691406 360.3125 97.855469 C 359.984375 98.015625 359.636719 98.144531 359.28125 98.238281 C 358.925781 98.335938 358.5625 98.394531 358.191406 98.417969 C 357.824219 98.441406 357.457031 98.425781 357.089844 98.378906 C 356.726562 98.328125 356.367188 98.246094 356.015625 98.125 C 355.667969 98.003906 355.332031 97.851562 355.015625 97.667969 C 354.695312 97.480469 354.398438 97.265625 354.121094 97.023438 C 353.84375 96.777344 353.59375 96.507812 353.367188 96.214844 C 353.144531 95.921875 352.949219 95.609375 352.789062 95.277344 C 352.625 94.945312 352.496094 94.601562 352.402344 94.246094 C 347.347656 75.1875 336.289062 60.71875 319.226562 50.84375 C 318.90625 50.65625 318.609375 50.441406 318.332031 50.199219 C 318.054688 49.957031 317.800781 49.6875 317.578125 49.394531 C 317.351562 49.101562 317.160156 48.789062 316.996094 48.457031 C 316.832031 48.125 316.703125 47.78125 316.609375 47.425781 C 316.515625 47.066406 316.453125 46.703125 316.429688 46.335938 C 316.40625 45.96875 316.417969 45.601562 316.46875 45.234375 C 316.515625 44.867188 316.601562 44.511719 316.71875 44.160156 C 316.839844 43.8125 316.992188 43.476562 317.175781 43.15625 C 317.359375 42.835938 317.574219 42.539062 317.820312 42.261719 C 318.0625 41.984375 318.332031 41.734375 318.625 41.507812 C 318.917969 41.285156 319.230469 41.089844 319.5625 40.925781 C 319.894531 40.765625 320.238281 40.632812 320.59375 40.539062 C 320.949219 40.445312 321.3125 40.386719 321.683594 40.359375 C 322.050781 40.335938 322.417969 40.351562 322.785156 40.398438 C 323.152344 40.445312 323.507812 40.53125 323.859375 40.648438 C 324.207031 40.769531 324.542969 40.921875 324.863281 41.105469 Z M 366.027344 113.300781 C 365.8125 135.925781 357.664062 155.203125 341.585938 171.125 C 341.324219 171.386719 341.039062 171.617188 340.730469 171.820312 C 340.421875 172.023438 340.097656 172.195312 339.753906 172.335938 C 339.414062 172.476562 339.0625 172.582031 338.699219 172.652344 C 338.335938 172.722656 337.96875 172.753906 337.601562 172.753906 C 337.230469 172.753906 336.863281 172.714844 336.503906 172.640625 C 336.140625 172.566406 335.789062 172.457031 335.449219 172.316406 C 335.109375 172.171875 334.785156 171.996094 334.480469 171.789062 C 334.171875 171.585938 333.890625 171.347656 333.628906 171.085938 C 333.371094 170.824219 333.140625 170.539062 332.933594 170.230469 C 332.730469 169.921875 332.558594 169.597656 332.421875 169.257812 C 332.28125 168.914062 332.175781 168.5625 332.105469 168.199219 C 332.035156 167.835938 332 167.472656 332.003906 167.101562 C 332.003906 166.730469 332.042969 166.367188 332.117188 166.003906 C 332.191406 165.644531 332.296875 165.292969 332.441406 164.953125 C 332.585938 164.609375 332.757812 164.289062 332.964844 163.980469 C 333.171875 163.675781 333.40625 163.390625 333.667969 163.132812 C 347.554688 149.378906 354.589844 132.734375 354.777344 113.191406 C 354.78125 112.820312 354.824219 112.457031 354.898438 112.09375 C 354.972656 111.734375 355.082031 111.382812 355.226562 111.042969 C 355.371094 110.703125 355.550781 110.378906 355.757812 110.074219 C 355.964844 109.769531 356.203125 109.488281 356.464844 109.230469 C 356.730469 108.972656 357.015625 108.742188 357.324219 108.539062 C 357.632812 108.335938 357.957031 108.167969 358.300781 108.027344 C 358.644531 107.890625 358.996094 107.785156 359.359375 107.71875 C 359.722656 107.648438 360.089844 107.617188 360.457031 107.621094 C 360.828125 107.625 361.191406 107.664062 361.554688 107.738281 C 361.914062 107.816406 362.265625 107.925781 362.605469 108.070312 C 362.945312 108.214844 363.269531 108.390625 363.574219 108.597656 C 363.878906 108.808594 364.160156 109.042969 364.417969 109.304688 C 364.679688 109.570312 364.910156 109.855469 365.109375 110.164062 C 365.3125 110.472656 365.484375 110.800781 365.621094 111.144531 C 365.757812 111.484375 365.863281 111.839844 365.929688 112.199219 C 366 112.5625 366.03125 112.929688 366.027344 113.300781 Z M 323.398438 184.734375 C 310.992188 191.582031 297.703125 195.007812 283.53125 195.007812 C 276.089844 195.007812 268.78125 194.019531 261.605469 192.039062 C 261.25 191.941406 260.90625 191.808594 260.578125 191.644531 C 260.246094 191.480469 259.9375 191.28125 259.644531 191.054688 C 259.351562 190.828125 259.085938 190.574219 258.84375 190.296875 C 258.605469 190.015625 258.390625 189.714844 258.210938 189.394531 C 258.027344 189.074219 257.878906 188.738281 257.761719 188.386719 C 257.644531 188.035156 257.566406 187.679688 257.519531 187.3125 C 257.472656 186.945312 257.464844 186.578125 257.492188 186.210938 C 257.519531 185.839844 257.582031 185.480469 257.679688 185.121094 C 257.777344 184.765625 257.910156 184.421875 258.074219 184.09375 C 258.238281 183.761719 258.4375 183.453125 258.664062 183.160156 C 258.890625 182.871094 259.144531 182.601562 259.421875 182.363281 C 259.703125 182.121094 260.003906 181.910156 260.324219 181.726562 C 260.644531 181.542969 260.980469 181.394531 261.332031 181.277344 C 261.683594 181.160156 262.039062 181.082031 262.40625 181.035156 C 262.773438 180.988281 263.140625 180.980469 263.507812 181.007812 C 263.878906 181.035156 264.238281 181.097656 264.597656 181.195312 C 270.792969 182.902344 277.105469 183.757812 283.53125 183.757812 C 295.769531 183.757812 307.25 180.800781 317.964844 174.886719 C 318.285156 174.707031 318.625 174.5625 318.976562 174.449219 C 319.328125 174.339844 319.6875 174.261719 320.054688 174.222656 C 320.421875 174.179688 320.789062 174.175781 321.15625 174.207031 C 321.523438 174.238281 321.886719 174.304688 322.242188 174.40625 C 322.597656 174.507812 322.9375 174.644531 323.265625 174.816406 C 323.59375 174.984375 323.902344 175.183594 324.191406 175.414062 C 324.480469 175.644531 324.742188 175.902344 324.980469 176.183594 C 325.21875 176.464844 325.425781 176.769531 325.605469 177.09375 C 325.785156 177.414062 325.929688 177.753906 326.042969 178.105469 C 326.152344 178.457031 326.230469 178.816406 326.269531 179.183594 C 326.3125 179.550781 326.316406 179.917969 326.285156 180.285156 C 326.253906 180.65625 326.1875 181.015625 326.085938 181.371094 C 325.984375 181.726562 325.847656 182.066406 325.675781 182.394531 C 325.507812 182.722656 325.308594 183.03125 325.078125 183.320312 C 324.847656 183.609375 324.589844 183.871094 324.308594 184.109375 C 324.027344 184.347656 323.722656 184.558594 323.398438 184.734375 Z M 240.753906 183.050781 C 221.222656 171.203125 208.757812 154.183594 203.363281 131.984375 C 203.277344 131.625 203.226562 131.261719 203.210938 130.894531 C 203.195312 130.523438 203.214844 130.15625 203.273438 129.792969 C 203.328125 129.425781 203.421875 129.070312 203.546875 128.722656 C 203.675781 128.378906 203.835938 128.046875 204.027344 127.730469 C 204.21875 127.414062 204.441406 127.121094 204.691406 126.851562 C 204.941406 126.578125 205.214844 126.332031 205.511719 126.117188 C 205.808594 125.898438 206.125 125.710938 206.460938 125.554688 C 206.796875 125.398438 207.144531 125.277344 207.503906 125.191406 C 207.863281 125.105469 208.226562 125.050781 208.59375 125.035156 C 208.964844 125.023438 209.332031 125.042969 209.695312 125.097656 C 210.0625 125.15625 210.417969 125.246094 210.761719 125.375 C 211.109375 125.5 211.441406 125.660156 211.757812 125.851562 C 212.070312 126.046875 212.367188 126.265625 212.636719 126.515625 C 212.910156 126.765625 213.15625 127.039062 213.371094 127.339844 C 213.589844 127.636719 213.777344 127.953125 213.933594 128.289062 C 214.089844 128.625 214.210938 128.96875 214.296875 129.328125 C 218.953125 148.5 229.71875 163.199219 246.585938 173.429688 C 246.902344 173.621094 247.199219 173.84375 247.46875 174.09375 C 247.742188 174.339844 247.988281 174.613281 248.207031 174.914062 C 248.425781 175.210938 248.613281 175.527344 248.769531 175.863281 C 248.925781 176.195312 249.046875 176.542969 249.132812 176.902344 C 249.222656 177.261719 249.273438 177.625 249.289062 177.992188 C 249.308594 178.363281 249.285156 178.730469 249.230469 179.09375 C 249.175781 179.460938 249.082031 179.816406 248.957031 180.164062 C 248.832031 180.507812 248.671875 180.839844 248.480469 181.15625 C 248.289062 181.472656 248.070312 181.765625 247.820312 182.039062 C 247.570312 182.3125 247.296875 182.558594 247 182.777344 C 246.699219 182.992188 246.382812 183.179688 246.050781 183.335938 C 245.714844 183.492188 245.367188 183.617188 245.007812 183.703125 C 244.652344 183.792969 244.285156 183.84375 243.917969 183.859375 C 243.550781 183.875 243.183594 183.855469 242.816406 183.800781 C 242.453125 183.742188 242.09375 183.652344 241.75 183.527344 C 241.402344 183.402344 241.070312 183.242188 240.753906 183.050781 Z M 201.066406 110.121094 C 201.722656 87.457031 210.269531 68.316406 226.707031 52.699219 C 226.976562 52.445312 227.265625 52.21875 227.578125 52.019531 C 227.890625 51.824219 228.21875 51.660156 228.5625 51.527344 C 228.90625 51.394531 229.261719 51.296875 229.625 51.234375 C 229.988281 51.167969 230.355469 51.144531 230.726562 51.152344 C 231.09375 51.164062 231.460938 51.207031 231.820312 51.289062 C 232.179688 51.371094 232.53125 51.484375 232.867188 51.636719 C 233.203125 51.785156 233.523438 51.96875 233.824219 52.179688 C 234.128906 52.394531 234.40625 52.632812 234.660156 52.902344 C 234.914062 53.167969 235.140625 53.460938 235.335938 53.769531 C 235.535156 54.082031 235.699219 54.414062 235.832031 54.757812 C 235.964844 55.101562 236.0625 55.457031 236.125 55.820312 C 236.1875 56.183594 236.214844 56.550781 236.207031 56.917969 C 236.195312 57.289062 236.152344 57.652344 236.070312 58.015625 C 235.988281 58.375 235.871094 58.722656 235.722656 59.0625 C 235.570312 59.398438 235.390625 59.71875 235.175781 60.019531 C 234.964844 60.320312 234.722656 60.597656 234.457031 60.855469 C 220.261719 74.34375 212.878906 90.875 212.3125 110.449219 C 212.300781 110.816406 212.253906 111.179688 212.171875 111.542969 C 212.089844 111.902344 211.972656 112.25 211.820312 112.585938 C 211.671875 112.925781 211.488281 113.242188 211.273438 113.542969 C 211.058594 113.84375 210.820312 114.121094 210.550781 114.375 C 210.28125 114.628906 209.992188 114.855469 209.679688 115.050781 C 209.367188 115.246094 209.035156 115.410156 208.691406 115.542969 C 208.347656 115.671875 207.992188 115.769531 207.628906 115.832031 C 207.261719 115.894531 206.894531 115.917969 206.527344 115.90625 C 206.15625 115.898438 205.792969 115.851562 205.433594 115.769531 C 205.074219 115.683594 204.726562 115.570312 204.386719 115.417969 C 204.050781 115.265625 203.730469 115.082031 203.429688 114.871094 C 203.128906 114.65625 202.851562 114.414062 202.597656 114.144531 C 202.34375 113.878906 202.121094 113.585938 201.925781 113.273438 C 201.726562 112.960938 201.5625 112.632812 201.433594 112.285156 C 201.300781 111.941406 201.203125 111.585938 201.144531 111.222656 C 201.082031 110.859375 201.054688 110.492188 201.066406 110.121094 Z M 245.140625 39.484375 C 257.15625 33.167969 269.957031 30.007812 283.53125 30.007812 C 290.390625 30.007812 297.140625 30.847656 303.789062 32.53125 C 304.148438 32.625 304.492188 32.75 304.828125 32.90625 C 305.160156 33.066406 305.476562 33.257812 305.769531 33.476562 C 306.066406 33.699219 306.339844 33.945312 306.585938 34.21875 C 306.832031 34.492188 307.050781 34.789062 307.242188 35.105469 C 307.429688 35.425781 307.585938 35.757812 307.710938 36.105469 C 307.832031 36.453125 307.921875 36.808594 307.976562 37.175781 C 308.027344 37.539062 308.046875 37.90625 308.027344 38.277344 C 308.007812 38.644531 307.953125 39.007812 307.863281 39.367188 C 307.769531 39.726562 307.644531 40.070312 307.488281 40.40625 C 307.328125 40.738281 307.136719 41.050781 306.917969 41.347656 C 306.695312 41.644531 306.449219 41.917969 306.175781 42.164062 C 305.902344 42.410156 305.605469 42.628906 305.289062 42.816406 C 304.96875 43.007812 304.636719 43.164062 304.289062 43.285156 C 303.941406 43.410156 303.585938 43.5 303.21875 43.550781 C 302.855469 43.605469 302.488281 43.621094 302.117188 43.601562 C 301.75 43.585938 301.386719 43.53125 301.027344 43.4375 C 295.285156 41.984375 289.453125 41.257812 283.53125 41.257812 C 271.808594 41.257812 260.753906 43.984375 250.375 49.441406 C 250.046875 49.613281 249.707031 49.753906 249.355469 49.859375 C 249 49.960938 248.640625 50.03125 248.269531 50.066406 C 247.902344 50.097656 247.535156 50.097656 247.167969 50.058594 C 246.800781 50.019531 246.441406 49.945312 246.089844 49.835938 C 245.734375 49.726562 245.398438 49.582031 245.074219 49.40625 C 244.746094 49.230469 244.445312 49.023438 244.160156 48.789062 C 243.875 48.550781 243.617188 48.289062 243.386719 48.003906 C 243.152344 47.714844 242.949219 47.410156 242.777344 47.082031 C 242.605469 46.753906 242.46875 46.414062 242.363281 46.058594 C 242.257812 45.707031 242.191406 45.34375 242.15625 44.976562 C 242.121094 44.609375 242.125 44.242188 242.164062 43.875 C 242.203125 43.507812 242.277344 43.148438 242.386719 42.792969 C 242.496094 42.441406 242.640625 42.101562 242.816406 41.777344 C 242.992188 41.453125 243.199219 41.148438 243.433594 40.867188 C 243.671875 40.582031 243.933594 40.324219 244.21875 40.089844 C 244.507812 39.859375 244.8125 39.65625 245.140625 39.484375 Z M 245.140625 39.484375 " fill-opacity="1" fill-rule="nonzero"/></g></svg>